# xmcd
#
# Track frame offsets: 
#        150
#        13242
#        31468
#        48261
#        64963
#        87984
#        103984
#        122007
#        137720
#        155152
#        170207
#        186452
#
# Disc length: 2805 seconds
#
# Revision: 0
# Processed by: cddbd v1.5.2PL0 Copyright (c) Steve Scherf et al.
# Submitted via: ExactAudioCopyFreeDBPlugin 1.0
#
DISCID=b50af30c
DTITLE=BC Read - 1000 Miles
DYEAR=2011
DGENRE=Blues
TTITLE0=Didn't Sleep At All Last Night
TTITLE1=The Blue Boy
TTITLE2=Number Two
TTITLE3=Rosalita
TTITLE4=1,000 Miles
TTITLE5=That's the Deal
TTITLE6=Jellyroll Baker
TTITLE7=Diamond Bop
TTITLE8=What Could Have Been
TTITLE9=(Why Can't We Just) Walk Away
TTITLE10=Train of Life
TTITLE11=Are You Ready For the Country
EXTD=
EXTT0=
EXTT1=
EXTT2=
EXTT3=
EXTT4=
EXTT5=
EXTT6=
EXTT7=
EXTT8=
EXTT9=
EXTT10=
EXTT11=
PLAYORDER=
